<mxfile host="app.diagrams.net" modified="2021-03-23T05:21:08.652Z" agent="5.0 (Windows NT 10.0; Win64; x64) AppleWebKit/537.36 (KHTML, like Gecko) Chrome/89.0.4389.90 Safari/537.36 Edg/89.0.774.54" etag="yTr2jDnXYzHly62ho-yB" version="14.4.8" type="github">
  <diagram id="Kbty9-9k9j6Ohm-Q7wvg" name="Page-1">
    <mxGraphModel dx="1038" dy="1701" grid="1" gridSize="10" guides="1" tooltips="1" connect="1" arrows="1" fold="1" page="1" pageScale="1" pageWidth="827" pageHeight="1169" math="0" shadow="0">
      <root>
        <mxCell id="0" />
        <mxCell id="1" parent="0" />
        <mxCell id="ufT467k5BJgsPg_nJbK8-1" value="ChuyenXe" style="swimlane;fontStyle=1;align=center;verticalAlign=top;childLayout=stackLayout;horizontal=1;startSize=26;horizontalStack=0;resizeParent=1;resizeParentMax=0;resizeLast=0;collapsible=1;marginBottom=0;" vertex="1" parent="1">
          <mxGeometry x="180" y="-60" width="200" height="210" as="geometry" />
        </mxCell>
        <mxCell id="ufT467k5BJgsPg_nJbK8-2" value="+ maSoChuyenXe: String&#xa;+ hoTenTaiXe: String&#xa;+ soXe: String&#xa;+ doanhThu: float&#xa;" style="text;strokeColor=none;fillColor=none;align=left;verticalAlign=top;spacingLeft=4;spacingRight=4;overflow=hidden;rotatable=0;points=[[0,0.5],[1,0.5]];portConstraint=eastwest;" vertex="1" parent="ufT467k5BJgsPg_nJbK8-1">
          <mxGeometry y="26" width="200" height="74" as="geometry" />
        </mxCell>
        <mxCell id="ufT467k5BJgsPg_nJbK8-3" value="" style="line;strokeWidth=1;fillColor=none;align=left;verticalAlign=middle;spacingTop=-1;spacingLeft=3;spacingRight=3;rotatable=0;labelPosition=right;points=[];portConstraint=eastwest;" vertex="1" parent="ufT467k5BJgsPg_nJbK8-1">
          <mxGeometry y="100" width="200" height="8" as="geometry" />
        </mxCell>
        <mxCell id="ufT467k5BJgsPg_nJbK8-4" value="+ PTKhoiTao();&#xa;+ nhap();&#xa;+ xuat();&#xa;+tinhDoanhThu();" style="text;strokeColor=none;fillColor=none;align=left;verticalAlign=top;spacingLeft=4;spacingRight=4;overflow=hidden;rotatable=0;points=[[0,0.5],[1,0.5]];portConstraint=eastwest;" vertex="1" parent="ufT467k5BJgsPg_nJbK8-1">
          <mxGeometry y="108" width="200" height="102" as="geometry" />
        </mxCell>
        <mxCell id="ufT467k5BJgsPg_nJbK8-5" value="ChuyenXeNoiThanh" style="swimlane;fontStyle=1;align=center;verticalAlign=top;childLayout=stackLayout;horizontal=1;startSize=26;horizontalStack=0;resizeParent=1;resizeParentMax=0;resizeLast=0;collapsible=1;marginBottom=0;" vertex="1" parent="1">
          <mxGeometry x="30" y="230" width="200" height="180" as="geometry" />
        </mxCell>
        <mxCell id="ufT467k5BJgsPg_nJbK8-6" value="+ soTuyen: String&#xa;+ soKM: float" style="text;strokeColor=none;fillColor=none;align=left;verticalAlign=top;spacingLeft=4;spacingRight=4;overflow=hidden;rotatable=0;points=[[0,0.5],[1,0.5]];portConstraint=eastwest;" vertex="1" parent="ufT467k5BJgsPg_nJbK8-5">
          <mxGeometry y="26" width="200" height="54" as="geometry" />
        </mxCell>
        <mxCell id="ufT467k5BJgsPg_nJbK8-7" value="" style="line;strokeWidth=1;fillColor=none;align=left;verticalAlign=middle;spacingTop=-1;spacingLeft=3;spacingRight=3;rotatable=0;labelPosition=right;points=[];portConstraint=eastwest;" vertex="1" parent="ufT467k5BJgsPg_nJbK8-5">
          <mxGeometry y="80" width="200" height="8" as="geometry" />
        </mxCell>
        <mxCell id="ufT467k5BJgsPg_nJbK8-8" value="+ PTKhoiTao();&#xa;+ nhap();&#xa;+ xuat();&#xa;+ tinhDoanhThu();" style="text;strokeColor=none;fillColor=none;align=left;verticalAlign=top;spacingLeft=4;spacingRight=4;overflow=hidden;rotatable=0;points=[[0,0.5],[1,0.5]];portConstraint=eastwest;" vertex="1" parent="ufT467k5BJgsPg_nJbK8-5">
          <mxGeometry y="88" width="200" height="92" as="geometry" />
        </mxCell>
        <mxCell id="ufT467k5BJgsPg_nJbK8-9" value="ChuyenXeNoiThanh" style="swimlane;fontStyle=1;align=center;verticalAlign=top;childLayout=stackLayout;horizontal=1;startSize=26;horizontalStack=0;resizeParent=1;resizeParentMax=0;resizeLast=0;collapsible=1;marginBottom=0;" vertex="1" parent="1">
          <mxGeometry x="340" y="240" width="200" height="180" as="geometry" />
        </mxCell>
        <mxCell id="ufT467k5BJgsPg_nJbK8-10" value="+ noiDen: String&#xa;+ soNgayDiDuoc: float" style="text;strokeColor=none;fillColor=none;align=left;verticalAlign=top;spacingLeft=4;spacingRight=4;overflow=hidden;rotatable=0;points=[[0,0.5],[1,0.5]];portConstraint=eastwest;" vertex="1" parent="ufT467k5BJgsPg_nJbK8-9">
          <mxGeometry y="26" width="200" height="54" as="geometry" />
        </mxCell>
        <mxCell id="ufT467k5BJgsPg_nJbK8-11" value="" style="line;strokeWidth=1;fillColor=none;align=left;verticalAlign=middle;spacingTop=-1;spacingLeft=3;spacingRight=3;rotatable=0;labelPosition=right;points=[];portConstraint=eastwest;" vertex="1" parent="ufT467k5BJgsPg_nJbK8-9">
          <mxGeometry y="80" width="200" height="8" as="geometry" />
        </mxCell>
        <mxCell id="ufT467k5BJgsPg_nJbK8-12" value="+ PTKhoiTao();&#xa;+ nhap();&#xa;+ xuat();&#xa;+ tinhDoanhThu();" style="text;strokeColor=none;fillColor=none;align=left;verticalAlign=top;spacingLeft=4;spacingRight=4;overflow=hidden;rotatable=0;points=[[0,0.5],[1,0.5]];portConstraint=eastwest;" vertex="1" parent="ufT467k5BJgsPg_nJbK8-9">
          <mxGeometry y="88" width="200" height="92" as="geometry" />
        </mxCell>
        <mxCell id="ufT467k5BJgsPg_nJbK8-14" value="Extends" style="endArrow=block;endSize=16;endFill=0;html=1;entryX=0.306;entryY=1;entryDx=0;entryDy=0;entryPerimeter=0;" edge="1" parent="1" target="ufT467k5BJgsPg_nJbK8-4">
          <mxGeometry width="160" relative="1" as="geometry">
            <mxPoint x="106" y="230" as="sourcePoint" />
            <mxPoint x="240" y="160" as="targetPoint" />
          </mxGeometry>
        </mxCell>
        <mxCell id="ufT467k5BJgsPg_nJbK8-15" value="Extends" style="endArrow=block;endSize=16;endFill=0;html=1;entryX=0.618;entryY=1.052;entryDx=0;entryDy=0;entryPerimeter=0;exitX=0.5;exitY=0;exitDx=0;exitDy=0;" edge="1" parent="1" source="ufT467k5BJgsPg_nJbK8-9" target="ufT467k5BJgsPg_nJbK8-4">
          <mxGeometry width="160" relative="1" as="geometry">
            <mxPoint x="455" y="290" as="sourcePoint" />
            <mxPoint x="314" y="230" as="targetPoint" />
          </mxGeometry>
        </mxCell>
        <mxCell id="ufT467k5BJgsPg_nJbK8-16" value="DanhSachChuyenXe" style="swimlane;fontStyle=1;align=center;verticalAlign=top;childLayout=stackLayout;horizontal=1;startSize=26;horizontalStack=0;resizeParent=1;resizeParentMax=0;resizeLast=0;collapsible=1;marginBottom=0;" vertex="1" parent="1">
          <mxGeometry x="510" y="-60" width="200" height="190" as="geometry" />
        </mxCell>
        <mxCell id="ufT467k5BJgsPg_nJbK8-17" value="ArrayList&lt;ChuyenXe&gt;listChuyenXe" style="text;strokeColor=none;fillColor=none;align=left;verticalAlign=top;spacingLeft=4;spacingRight=4;overflow=hidden;rotatable=0;points=[[0,0.5],[1,0.5]];portConstraint=eastwest;" vertex="1" parent="ufT467k5BJgsPg_nJbK8-16">
          <mxGeometry y="26" width="200" height="74" as="geometry" />
        </mxCell>
        <mxCell id="ufT467k5BJgsPg_nJbK8-18" value="" style="line;strokeWidth=1;fillColor=none;align=left;verticalAlign=middle;spacingTop=-1;spacingLeft=3;spacingRight=3;rotatable=0;labelPosition=right;points=[];portConstraint=eastwest;" vertex="1" parent="ufT467k5BJgsPg_nJbK8-16">
          <mxGeometry y="100" width="200" height="8" as="geometry" />
        </mxCell>
        <mxCell id="ufT467k5BJgsPg_nJbK8-19" value="+ PTKhoiTao();&#xa;+ nhap();&#xa;+ xuat();&#xa;+ tinhDoanhThu();" style="text;strokeColor=none;fillColor=none;align=left;verticalAlign=top;spacingLeft=4;spacingRight=4;overflow=hidden;rotatable=0;points=[[0,0.5],[1,0.5]];portConstraint=eastwest;" vertex="1" parent="ufT467k5BJgsPg_nJbK8-16">
          <mxGeometry y="108" width="200" height="82" as="geometry" />
        </mxCell>
      </root>
    </mxGraphModel>
  </diagram>
</mxfile>
